<svg width="85" height="92" viewBox="0 0 85 92" fill="none" xmlns="http://www.w3.org/2000/svg">
<path d="M42.2499 50.7368C44.9253 50.7368 47.0942 48.6161 47.0942 46C47.0942 43.3839 44.9253 41.2632 42.2499 41.2632C39.5744 41.2632 37.4056 43.3839 37.4056 46C37.4056 48.6161 39.5744 50.7368 42.2499 50.7368Z" fill="#222222"/>
<path d="M42.2499 50.7368C44.9253 50.7368 47.0942 48.6161 47.0942 46C47.0942 43.3839 44.9253 41.2632 42.2499 41.2632C39.5744 41.2632 37.4056 43.3839 37.4056 46C37.4056 48.6161 39.5744 50.7368 42.2499 50.7368Z" stroke="#FF5722" stroke-width="2"/>
<path d="M64.0492 46C64.0492 58.7923 61.3926 70.2569 57.2105 78.4355C52.9562 86.7558 47.5268 91 42.2499 91C36.973 91 31.5437 86.7558 27.2892 78.4355C23.1071 70.2569 20.4506 58.7923 20.4506 46C20.4506 33.2075 23.1071 21.7432 27.2892 13.5647C31.5437 5.24445 36.973 1 42.2499 1C47.5268 1 52.9562 5.24445 57.2105 13.5647C61.3926 21.7432 64.0492 33.2075 64.0492 46Z" stroke="#FF5722" stroke-width="2"/>
<path d="M53.1495 64.4595C41.8197 70.8556 30.3379 74.3382 21.0033 74.8862C11.5071 75.4433 5.03327 72.9678 2.39483 68.4995C-0.243615 64.0308 0.800913 57.3111 6.04263 49.5479C11.1951 41.9173 20.0204 33.9356 31.3503 27.5393C42.68 21.1431 54.162 17.6606 63.4964 17.1127C72.9927 16.5554 79.4666 19.0308 82.1053 23.4994C84.7435 27.9679 83.6991 34.6878 78.4576 42.4507C73.3047 50.0813 64.4794 58.0633 53.1495 64.4595Z" stroke="#FF5722" stroke-width="2"/>
<path d="M53.1495 27.5398C41.8197 21.1435 30.3379 17.661 21.0033 17.1131C11.5071 16.5557 5.03327 19.0312 2.39483 23.4998C-0.243615 27.9683 0.800913 34.6882 6.04263 42.4512C11.1951 50.0817 20.0204 58.0633 31.3503 64.4599C42.68 70.8561 54.162 74.3386 63.4964 74.8862C72.9927 75.4437 79.4666 72.9683 82.1053 68.5C84.7435 64.0313 83.6991 57.3111 78.4576 49.5484C73.3047 41.9178 64.4794 33.936 53.1495 27.5398Z" stroke="#FF5722" stroke-width="2"/>
</svg>
