<svg width="11" height="11" viewBox="0 0 11 11" fill="none" xmlns="http://www.w3.org/2000/svg">
<path d="M0.970588 10.0294H1.78685L8.41047 3.40579L7.59421 2.58953L0.970588 9.21315V10.0294ZM0 11V8.81003L8.53503 0.27872C8.63284 0.189858 8.74085 0.121216 8.85905 0.0727941C8.97735 0.0242647 9.10137 0 9.2311 0C9.36084 0 9.48648 0.0230248 9.60802 0.0690738C9.72966 0.115123 9.83734 0.188348 9.93106 0.28875L10.7213 1.08884C10.8217 1.18255 10.8932 1.2904 10.9359 1.41237C10.9786 1.53434 11 1.65631 11 1.77828C11 1.90845 10.9778 2.03263 10.9334 2.15082C10.8889 2.26913 10.8182 2.37719 10.7213 2.475L2.18997 11H0ZM7.99522 3.00478L7.59421 2.58953L8.41047 3.40579L7.99522 3.00478Z" fill="#212124"/>
</svg>
