<svg width="16" height="15" viewBox="0 0 16 15" fill="none" xmlns="http://www.w3.org/2000/svg">
<path d="M1.82353 13.6765H2.93662L11.9688 4.64426L10.8557 3.53118L1.82353 12.5634V13.6765ZM0.5 15V12.0137L12.1387 0.380073C12.2721 0.258897 12.4193 0.165294 12.5805 0.0992647C12.7418 0.0330882 12.911 0 13.0879 0C13.2648 0 13.4361 0.0313975 13.6018 0.0941916C13.7677 0.156986 13.9146 0.256838 14.0424 0.393749L15.1199 1.48478C15.2568 1.61257 15.3544 1.75963 15.4126 1.92596C15.4709 2.09228 15.5 2.2586 15.5 2.42493C15.5 2.60243 15.4697 2.77177 15.4091 2.93294C15.3485 3.09427 15.2521 3.24162 15.1199 3.375L3.48632 15H0.5ZM11.4026 4.09743L10.8557 3.53118L11.9688 4.64426L11.4026 4.09743Z" fill="#666666"/>
</svg>
