<svg width="18" height="16" viewBox="0 0 18 16" fill="none" xmlns="http://www.w3.org/2000/svg">
<path d="M9.00001 0.125C8.77219 0.125 8.54719 0.174219 8.33344 0.269141L0.444381 3.83047C0.177193 3.95352 5.66151e-06 4.26992 5.66151e-06 4.625C5.66151e-06 4.98008 0.177193 5.29648 0.444381 5.41953L2.07282 6.1543C1.61157 7.06133 1.35001 8.13359 1.35001 9.26211V10.25C1.35001 11.2484 1.04626 12.2785 0.722818 13.0906C0.540006 13.5477 0.331881 13.9977 0.0900057 14.4125C5.66247e-06 14.5637 -0.0253068 14.7605 0.0253182 14.9398C0.0759432 15.1191 0.194068 15.2527 0.340318 15.2984L2.14032 15.8609C2.25844 15.8996 2.38501 15.8715 2.48907 15.7906C2.59313 15.7098 2.66626 15.5762 2.68876 15.425C2.93063 13.9203 2.80969 12.5703 2.62969 11.6035C2.53969 11.1043 2.41876 10.5945 2.25001 10.127V9.26211C2.25001 8.20039 2.53688 7.19844 3.03469 6.39687C3.39751 5.85195 3.86719 5.4125 4.41844 5.1418L8.83407 2.97266C9.06469 2.86016 9.32626 3.00078 9.41625 3.28906C9.50626 3.57734 9.39375 3.9043 9.16313 4.0168L4.74751 6.18594C4.39876 6.3582 4.09219 6.62187 3.84188 6.94531L8.33063 8.97031C8.54438 9.06523 8.76938 9.11445 8.99719 9.11445C9.22501 9.11445 9.45001 9.06523 9.66376 8.97031L17.5556 5.41953C17.8228 5.3 18 4.98008 18 4.625C18 4.26992 17.8228 3.95352 17.5556 3.83047L9.66657 0.269141C9.45282 0.174219 9.22782 0.125 9.00001 0.125ZM3.60001 13.3438C3.60001 14.5848 6.01876 15.875 9.00001 15.875C11.9813 15.875 14.4 14.5848 14.4 13.3438L13.9697 8.23203L9.97032 10.0391C9.65813 10.1797 9.32907 10.25 9.00001 10.25C8.67094 10.25 8.33907 10.1797 8.02969 10.0391L4.03032 8.23203L3.60001 13.3438Z" fill="#E0E0E0"/>
</svg>
