<svg width="718" height="140" viewBox="0 0 718 140" fill="none" xmlns="http://www.w3.org/2000/svg">
<path d="M28.3653 74.88L2.84531 54.48V52.88L28.2853 32.08V37.6L9.00531 53.6L28.3653 69.36V74.88ZM683.147 20.96L665.947 76H660.427L677.627 20.96H683.147ZM715.137 54.48L689.617 74.88V69.36L708.977 53.6L689.697 37.6V32.08L715.137 52.88V54.48Z" fill="#ff7551"/>
<path d="M90.3484 61.44C90.3484 66.4533 88.5618 70.2667 84.9884 72.88C81.4684 75.4933 77.0684 76.8 71.7884 76.8C64.5351 76.8 58.9618 75.3867 55.0684 72.56L56.1884 62.32L60.9884 62.8L60.6684 69.36C62.4284 70.2667 64.1884 70.88 65.9484 71.2C67.7084 71.52 69.5484 71.68 71.4684 71.68C74.8818 71.68 77.8151 70.96 80.2684 69.52C82.7751 68.0267 84.0284 65.52 84.0284 62C84.0284 58.0533 82.6684 55.4933 79.9484 54.32C77.2284 53.0933 74.2684 52.1067 71.0684 51.36C68.6151 50.8267 66.1884 50.16 63.7884 49.36C61.3884 48.5067 59.3884 47.2 57.7884 45.44C56.1884 43.6267 55.3884 41.0133 55.3884 37.6C55.3884 32.6933 57.0151 29.0667 60.2684 26.72C63.5751 24.3733 67.4684 23.2 71.9484 23.2C74.8284 23.2 77.7351 23.6 80.6684 24.4C83.6018 25.2 85.8951 26.24 87.5484 27.52L88.0284 37.84L83.2284 38.32L82.4284 30.56C80.7751 29.7067 79.0951 29.1467 77.3884 28.88C75.6818 28.56 74.0551 28.4 72.5084 28.4C69.2551 28.4 66.6151 29.1467 64.5884 30.64C62.6151 32.08 61.6284 34.1867 61.6284 36.96C61.6284 40.2133 62.8284 42.4 65.2284 43.52C67.6284 44.64 70.2951 45.5467 73.2284 46.24C75.5751 46.7733 78.0551 47.4667 80.6684 48.32C83.3351 49.12 85.6018 50.5333 87.4684 52.56C89.3884 54.5333 90.3484 57.4933 90.3484 61.44ZM100.285 43.12C102.151 41.8933 104.125 41.0133 106.205 40.48C108.285 39.9467 110.498 39.68 112.845 39.68C121.325 39.68 125.565 43.6533 125.565 51.6V68.56C125.565 71.12 126.578 72.4 128.605 72.4C129.511 72.4 130.311 72.24 131.005 71.92L131.085 75.6C129.645 76.4 128.098 76.8 126.445 76.8C122.231 76.8 120.071 74.4 119.965 69.6V69.44C118.845 71.36 117.245 73.0667 115.165 74.56C113.138 76.0533 110.685 76.8 107.805 76.8C105.458 76.8 103.058 76.08 100.605 74.64C98.2047 73.2 97.0047 70.5867 97.0047 66.8C97.0047 62.32 98.7647 59.3867 102.285 58C105.858 56.56 109.645 55.84 113.645 55.84C114.711 55.84 115.778 55.8667 116.845 55.92C117.965 55.9733 119.005 56.0533 119.965 56.16V52.96C119.965 50.4 119.405 48.32 118.285 46.72C117.218 45.12 115.085 44.32 111.885 44.32C109.271 44.32 106.978 44.8 105.005 45.76L103.645 51.92L99.0047 51.36L100.285 43.12ZM119.965 62.64V59.92C118.951 59.8667 117.885 59.7867 116.765 59.68C115.645 59.5733 114.498 59.52 113.325 59.52C110.658 59.52 108.231 59.9467 106.045 60.8C103.911 61.6 102.845 63.3867 102.845 66.16C102.845 68.4533 103.565 70.0267 105.005 70.88C106.445 71.7333 107.938 72.16 109.485 72.16C111.938 72.16 114.231 71.3067 116.365 69.6C118.551 67.8933 119.751 65.5733 119.965 62.64ZM177.597 76H159.597V71.44H165.757V54.88C165.757 51.04 164.983 48.3467 163.437 46.8C161.89 45.2 159.917 44.4 157.517 44.4C154.317 44.4 151.73 45.4667 149.757 47.6C147.837 49.68 146.823 52.08 146.717 54.8V71.44H152.957V76H134.877V71.44H141.117V44.96H134.717V40.4H146.717V46.72C149.277 42.0267 153.437 39.68 159.197 39.68C162.663 39.68 165.57 40.7467 167.917 42.88C170.263 45.0133 171.437 48.4533 171.437 53.2V71.44H177.597V76ZM207.616 66.4C206.656 73.3333 202.896 76.8 196.336 76.8C192.763 76.8 190.016 75.7867 188.096 73.76C186.229 71.7333 185.296 68.9867 185.296 65.52V44.88H179.536V40.4H185.296V28.96H190.896V40.4H204.816V44.88H190.896V64.8C190.896 66.9333 191.349 68.6667 192.256 70C193.216 71.28 194.763 71.92 196.896 71.92C198.283 71.92 199.563 71.4933 200.736 70.64C201.963 69.7867 202.843 67.92 203.376 65.04L207.616 66.4ZM216.423 31.2V23.92H222.503V31.2H216.423ZM228.823 76H210.743V71.44H216.983V44.96H210.583V40.4H222.583V71.44H228.823V76ZM236.925 43.12C238.792 41.8933 240.765 41.0133 242.845 40.48C244.925 39.9467 247.139 39.68 249.485 39.68C257.965 39.68 262.205 43.6533 262.205 51.6V68.56C262.205 71.12 263.219 72.4 265.245 72.4C266.152 72.4 266.952 72.24 267.645 71.92L267.725 75.6C266.285 76.4 264.739 76.8 263.085 76.8C258.872 76.8 256.712 74.4 256.605 69.6V69.44C255.485 71.36 253.885 73.0667 251.805 74.56C249.779 76.0533 247.325 76.8 244.445 76.8C242.099 76.8 239.699 76.08 237.245 74.64C234.845 73.2 233.645 70.5867 233.645 66.8C233.645 62.32 235.405 59.3867 238.925 58C242.499 56.56 246.285 55.84 250.285 55.84C251.352 55.84 252.419 55.8667 253.485 55.92C254.605 55.9733 255.645 56.0533 256.605 56.16V52.96C256.605 50.4 256.045 48.32 254.925 46.72C253.859 45.12 251.725 44.32 248.525 44.32C245.912 44.32 243.619 44.8 241.645 45.76L240.285 51.92L235.645 51.36L236.925 43.12ZM256.605 62.64V59.92C255.592 59.8667 254.525 59.7867 253.405 59.68C252.285 59.5733 251.139 59.52 249.965 59.52C247.299 59.52 244.872 59.9467 242.685 60.8C240.552 61.6 239.485 63.3867 239.485 66.16C239.485 68.4533 240.205 70.0267 241.645 70.88C243.085 71.7333 244.579 72.16 246.125 72.16C248.579 72.16 250.872 71.3067 253.005 69.6C255.192 67.8933 256.392 65.5733 256.605 62.64ZM311.597 44.96H305.837V75.52C305.837 81.12 304.291 85.5733 301.197 88.88C298.157 92.1867 293.864 93.84 288.317 93.84C284.584 93.84 281.224 92.9867 278.237 91.28C275.304 89.5733 273.357 86.9333 272.397 83.36L276.877 81.12C277.784 83.8933 279.357 85.8933 281.597 87.12C283.837 88.4 286.157 89.04 288.557 89.04C291.971 89.04 294.744 87.84 296.877 85.44C299.064 83.0933 300.157 79.7067 300.157 75.28V68.72C299.091 70.8 297.544 72.6133 295.517 74.16C293.491 75.7067 290.797 76.48 287.437 76.48C283.224 76.48 279.624 74.9867 276.637 72C273.651 69.0133 272.157 64.72 272.157 59.12C272.157 54.3733 273.437 49.9467 275.997 45.84C278.557 41.7333 282.584 39.68 288.077 39.68C293.731 39.68 297.757 41.7867 300.157 46V40.4H311.597V44.96ZM300.157 60.64V54.48C300.157 51.4933 299.117 49.0933 297.037 47.28C295.011 45.4133 292.531 44.48 289.597 44.48C285.597 44.48 282.691 45.92 280.877 48.8C279.117 51.68 278.237 54.9867 278.237 58.72C278.237 63.0933 279.224 66.3467 281.197 68.48C283.224 70.6133 285.704 71.68 288.637 71.68C292.051 71.68 294.797 70.5067 296.877 68.16C298.957 65.8133 300.051 63.3067 300.157 60.64ZM351.025 58.16C351.025 63.5467 349.425 68 346.225 71.52C343.025 75.04 338.679 76.8 333.185 76.8C327.799 76.8 323.559 75.0933 320.465 71.68C317.425 68.2667 315.905 63.8667 315.905 58.48C315.905 53.3067 317.399 48.88 320.385 45.2C323.372 41.4667 327.745 39.6 333.505 39.6C339.319 39.6 343.692 41.44 346.625 45.12C349.559 48.7467 351.025 53.0933 351.025 58.16ZM345.105 58.08C345.105 54.0267 344.065 50.7467 341.985 48.24C339.959 45.68 337.079 44.4 333.345 44.4C329.612 44.4 326.732 45.7067 324.705 48.32C322.732 50.9333 321.745 54.2133 321.745 58.16C321.745 62.0533 322.732 65.3333 324.705 68C326.679 70.6667 329.559 72 333.345 72C337.132 72 340.039 70.6933 342.065 68.08C344.092 65.4133 345.105 62.08 345.105 58.08ZM418.086 72C413.926 75.2 408.139 76.8 400.726 76.8C393.153 76.8 387.019 74.2933 382.326 69.28C377.633 64.2133 375.286 57.8933 375.286 50.32C375.286 45.52 376.299 41.0667 378.326 36.96C380.353 32.8 383.206 29.4667 386.886 26.96C390.566 24.4533 394.939 23.2 400.006 23.2C404.326 23.2 407.926 23.76 410.806 24.88C413.739 26 416.273 27.4667 418.406 29.28L419.846 39.28L414.806 39.76L413.366 32.16C411.659 31.04 409.819 30.16 407.846 29.52C405.873 28.8267 403.419 28.48 400.486 28.48C394.779 28.48 390.166 30.5067 386.646 34.56C383.179 38.6133 381.446 43.7867 381.446 50.08C381.446 56.5333 383.233 61.7333 386.806 65.68C390.433 69.5733 395.339 71.52 401.526 71.52C406.059 71.52 409.873 70.7467 412.966 69.2L414.486 61.52L419.446 62L418.086 72ZM430.285 43.12C432.151 41.8933 434.125 41.0133 436.205 40.48C438.285 39.9467 440.498 39.68 442.845 39.68C451.325 39.68 455.565 43.6533 455.565 51.6V68.56C455.565 71.12 456.578 72.4 458.605 72.4C459.511 72.4 460.311 72.24 461.005 71.92L461.085 75.6C459.645 76.4 458.098 76.8 456.445 76.8C452.231 76.8 450.071 74.4 449.965 69.6V69.44C448.845 71.36 447.245 73.0667 445.165 74.56C443.138 76.0533 440.685 76.8 437.805 76.8C435.458 76.8 433.058 76.08 430.605 74.64C428.205 73.2 427.005 70.5867 427.005 66.8C427.005 62.32 428.765 59.3867 432.285 58C435.858 56.56 439.645 55.84 443.645 55.84C444.711 55.84 445.778 55.8667 446.845 55.92C447.965 55.9733 449.005 56.0533 449.965 56.16V52.96C449.965 50.4 449.405 48.32 448.285 46.72C447.218 45.12 445.085 44.32 441.885 44.32C439.271 44.32 436.978 44.8 435.005 45.76L433.645 51.92L429.005 51.36L430.285 43.12ZM449.965 62.64V59.92C448.951 59.8667 447.885 59.7867 446.765 59.68C445.645 59.5733 444.498 59.52 443.325 59.52C440.658 59.52 438.231 59.9467 436.045 60.8C433.911 61.6 432.845 63.3867 432.845 66.16C432.845 68.4533 433.565 70.0267 435.005 70.88C436.445 71.7333 437.938 72.16 439.485 72.16C441.938 72.16 444.231 71.3067 446.365 69.6C448.551 67.8933 449.751 65.5733 449.965 62.64ZM482.157 76H464.077V71.44H470.317V25.52H463.997V20.96H475.917V71.44H482.157V76ZM490.207 43.12C492.073 41.8933 494.047 41.0133 496.127 40.48C498.207 39.9467 500.42 39.68 502.767 39.68C511.247 39.68 515.487 43.6533 515.487 51.6V68.56C515.487 71.12 516.5 72.4 518.527 72.4C519.433 72.4 520.233 72.24 520.927 71.92L521.007 75.6C519.567 76.4 518.02 76.8 516.367 76.8C512.153 76.8 509.993 74.4 509.887 69.6V69.44C508.767 71.36 507.167 73.0667 505.087 74.56C503.06 76.0533 500.607 76.8 497.727 76.8C495.38 76.8 492.98 76.08 490.527 74.64C488.127 73.2 486.927 70.5867 486.927 66.8C486.927 62.32 488.687 59.3867 492.207 58C495.78 56.56 499.567 55.84 503.567 55.84C504.633 55.84 505.7 55.8667 506.767 55.92C507.887 55.9733 508.927 56.0533 509.887 56.16V52.96C509.887 50.4 509.327 48.32 508.207 46.72C507.14 45.12 505.007 44.32 501.807 44.32C499.193 44.32 496.9 44.8 494.927 45.76L493.567 51.92L488.927 51.36L490.207 43.12ZM509.887 62.64V59.92C508.873 59.8667 507.807 59.7867 506.687 59.68C505.567 59.5733 504.42 59.52 503.247 59.52C500.58 59.52 498.153 59.9467 495.967 60.8C493.833 61.6 492.767 63.3867 492.767 66.16C492.767 68.4533 493.487 70.0267 494.927 70.88C496.367 71.7333 497.86 72.16 499.407 72.16C501.86 72.16 504.153 71.3067 506.287 69.6C508.473 67.8933 509.673 65.5733 509.887 62.64ZM562.078 57.28C562.078 60.4267 561.545 63.4933 560.478 66.48C559.412 69.4667 557.705 71.9467 555.358 73.92C553.012 75.84 549.972 76.8 546.238 76.8C540.265 76.8 536.105 74.56 533.758 70.08L532.958 76H527.358C527.572 74.4533 527.812 72.7733 528.078 70.96C528.345 69.1467 528.478 67.36 528.478 65.6V25.52H522.318V20.96H534.078V47.76C535.145 45.5733 536.665 43.68 538.638 42.08C540.665 40.48 543.385 39.68 546.798 39.68C551.225 39.68 554.878 41.2 557.758 44.24C560.638 47.28 562.078 51.6267 562.078 57.28ZM556.158 57.84C556.158 53.4133 555.118 50.08 553.038 47.84C550.958 45.6 548.425 44.48 545.438 44.48C542.025 44.48 539.305 45.7333 537.278 48.24C535.252 50.7467 534.185 53.3067 534.078 55.92V61.28C534.078 64.2667 535.118 66.8 537.198 68.88C539.332 70.96 541.945 72 545.038 72C548.932 72 551.758 70.56 553.518 67.68C555.278 64.8 556.158 61.52 556.158 57.84ZM587.853 39.76C590.413 39.76 592.439 40.3733 593.933 41.6L595.293 50.56L590.733 51.12L589.373 45.04C588.466 44.72 587.559 44.56 586.653 44.56C584.573 44.56 582.839 45.44 581.453 47.2C580.066 48.9067 579.373 51.1467 579.373 53.92V71.44H587.613V76H567.533V71.44H573.773V44.96H567.373V40.4H579.053V46.8C579.746 44.8267 580.866 43.1733 582.413 41.84C584.013 40.4533 585.826 39.76 587.853 39.76ZM631.607 26.08L617.847 34.4L616.087 31.92L628.407 21.36L631.607 26.08ZM636.807 58.16C636.807 63.5467 635.207 68 632.007 71.52C628.807 75.04 624.46 76.8 618.967 76.8C613.58 76.8 609.34 75.0933 606.247 71.68C603.207 68.2667 601.687 63.8667 601.687 58.48C601.687 53.3067 603.18 48.88 606.167 45.2C609.153 41.4667 613.527 39.6 619.287 39.6C625.1 39.6 629.473 41.44 632.407 45.12C635.34 48.7467 636.807 53.0933 636.807 58.16ZM630.887 58.08C630.887 54.0267 629.847 50.7467 627.767 48.24C625.74 45.68 622.86 44.4 619.127 44.4C615.393 44.4 612.513 45.7067 610.487 48.32C608.513 50.9333 607.527 54.2133 607.527 58.16C607.527 62.0533 608.513 65.3333 610.487 68C612.46 70.6667 615.34 72 619.127 72C622.913 72 625.82 70.6933 627.847 68.08C629.873 65.4133 630.887 62.08 630.887 58.08Z" fill="#E0E0E0"/>
<path d="M115.946 126.54C115.946 128.42 115.276 129.85 113.936 130.83C112.616 131.81 110.966 132.3 108.986 132.3C106.266 132.3 104.176 131.77 102.716 130.71L103.136 126.87L104.936 127.05L104.816 129.51C105.476 129.85 106.136 130.08 106.796 130.2C107.456 130.32 108.146 130.38 108.866 130.38C110.146 130.38 111.246 130.11 112.166 129.57C113.106 129.01 113.576 128.07 113.576 126.75C113.576 125.27 113.066 124.31 112.046 123.87C111.026 123.41 109.916 123.04 108.716 122.76C107.796 122.56 106.886 122.31 105.986 122.01C105.086 121.69 104.336 121.2 103.736 120.54C103.136 119.86 102.836 118.88 102.836 117.6C102.836 115.76 103.446 114.4 104.666 113.52C105.906 112.64 107.366 112.2 109.046 112.2C110.126 112.2 111.216 112.35 112.316 112.65C113.416 112.95 114.276 113.34 114.896 113.82L115.076 117.69L113.276 117.87L112.976 114.96C112.356 114.64 111.726 114.43 111.086 114.33C110.446 114.21 109.836 114.15 109.256 114.15C108.036 114.15 107.046 114.43 106.286 114.99C105.546 115.53 105.176 116.32 105.176 117.36C105.176 118.58 105.626 119.4 106.526 119.82C107.426 120.24 108.426 120.58 109.526 120.84C110.406 121.04 111.336 121.3 112.316 121.62C113.316 121.92 114.166 122.45 114.866 123.21C115.586 123.95 115.946 125.06 115.946 126.54ZM131.522 125.31C131.522 127.33 130.922 129 129.722 130.32C128.522 131.64 126.892 132.3 124.832 132.3C122.812 132.3 121.222 131.66 120.062 130.38C118.922 129.1 118.352 127.45 118.352 125.43C118.352 123.49 118.912 121.83 120.032 120.45C121.152 119.05 122.792 118.35 124.952 118.35C127.132 118.35 128.772 119.04 129.872 120.42C130.972 121.78 131.522 123.41 131.522 125.31ZM129.302 125.28C129.302 123.76 128.912 122.53 128.132 121.59C127.372 120.63 126.292 120.15 124.892 120.15C123.492 120.15 122.412 120.64 121.652 121.62C120.912 122.6 120.542 123.83 120.542 125.31C120.542 126.77 120.912 128 121.652 129C122.392 130 123.472 130.5 124.892 130.5C126.312 130.5 127.402 130.01 128.162 129.03C128.922 128.03 129.302 126.78 129.302 125.28ZM140.423 111.06C141.043 111.06 141.593 111.12 142.073 111.24C142.573 111.36 143.053 111.62 143.513 112.02L144.023 115.11L142.313 115.32L141.743 113.04C141.343 112.88 140.833 112.8 140.213 112.8C138.633 112.8 137.843 113.86 137.843 115.98V118.65H141.293V120.33H137.843V130.29H140.873V132H133.403V130.29H135.713V120.33H133.793V118.65H135.713V116.16C135.713 114.6 136.173 113.36 137.093 112.44C138.033 111.52 139.143 111.06 140.423 111.06ZM153.183 128.4C152.823 131 151.413 132.3 148.953 132.3C147.613 132.3 146.583 131.92 145.863 131.16C145.163 130.4 144.813 129.37 144.813 128.07V120.33H142.653V118.65H144.813V114.36H146.913V118.65H152.133V120.33H146.913V127.8C146.913 128.6 147.083 129.25 147.423 129.75C147.783 130.23 148.363 130.47 149.163 130.47C149.683 130.47 150.163 130.31 150.603 129.99C151.063 129.67 151.393 128.97 151.593 127.89L153.183 128.4ZM176.016 120.36H174.486L170.556 132H168.936L164.856 121.8H164.706L160.716 132H159.156L155.076 120.36H153.606V118.65H159.906V120.36H157.356L160.146 128.79H160.296L164.256 118.65H165.666L169.836 128.79H169.986L172.446 120.36H170.016V118.65H176.016V120.36ZM178.735 119.67C179.435 119.21 180.175 118.88 180.955 118.68C181.735 118.48 182.565 118.38 183.445 118.38C186.625 118.38 188.215 119.87 188.215 122.85V129.21C188.215 130.17 188.595 130.65 189.355 130.65C189.695 130.65 189.995 130.59 190.255 130.47L190.285 131.85C189.745 132.15 189.165 132.3 188.545 132.3C186.965 132.3 186.155 131.4 186.115 129.6V129.54C185.695 130.26 185.095 130.9 184.315 131.46C183.555 132.02 182.635 132.3 181.555 132.3C180.675 132.3 179.775 132.03 178.855 131.49C177.955 130.95 177.505 129.97 177.505 128.55C177.505 126.87 178.165 125.77 179.485 125.25C180.825 124.71 182.245 124.44 183.745 124.44C184.145 124.44 184.545 124.45 184.945 124.47C185.365 124.49 185.755 124.52 186.115 124.56V123.36C186.115 122.4 185.905 121.62 185.485 121.02C185.085 120.42 184.285 120.12 183.085 120.12C182.105 120.12 181.245 120.3 180.505 120.66L179.995 122.97L178.255 122.76L178.735 119.67ZM186.115 126.99V125.97C185.735 125.95 185.335 125.92 184.915 125.88C184.495 125.84 184.065 125.82 183.625 125.82C182.625 125.82 181.715 125.98 180.895 126.3C180.095 126.6 179.695 127.27 179.695 128.31C179.695 129.17 179.965 129.76 180.505 130.08C181.045 130.4 181.605 130.56 182.185 130.56C183.105 130.56 183.965 130.24 184.765 129.6C185.585 128.96 186.035 128.09 186.115 126.99ZM199.327 118.41C200.287 118.41 201.047 118.64 201.607 119.1L202.117 122.46L200.407 122.67L199.897 120.39C199.557 120.27 199.217 120.21 198.877 120.21C198.097 120.21 197.447 120.54 196.927 121.2C196.407 121.84 196.147 122.68 196.147 123.72V130.29H199.237V132H191.707V130.29H194.047V120.36H191.647V118.65H196.027V121.05C196.287 120.31 196.707 119.69 197.287 119.19C197.887 118.67 198.567 118.41 199.327 118.41ZM216.454 128.16C216.274 129.3 215.704 130.28 214.744 131.1C213.784 131.9 212.484 132.3 210.844 132.3C208.964 132.3 207.444 131.71 206.284 130.53C205.124 129.35 204.544 127.68 204.544 125.52C204.544 123.44 205.094 121.73 206.194 120.39C207.294 119.05 208.784 118.38 210.664 118.38C212.504 118.38 213.904 118.96 214.864 120.12C215.824 121.28 216.314 122.65 216.334 124.23C216.334 124.75 216.274 125.28 216.154 125.82H206.764C206.884 128.94 208.294 130.5 210.994 130.5C212.054 130.5 212.884 130.25 213.484 129.75C214.084 129.25 214.484 128.59 214.684 127.77L216.454 128.16ZM214.114 124.26C214.214 123.26 213.974 122.32 213.394 121.44C212.834 120.56 211.904 120.12 210.604 120.12C209.364 120.12 208.454 120.53 207.874 121.35C207.294 122.17 206.934 123.14 206.794 124.26H214.114ZM244.243 122.22C244.243 125.08 243.363 127.43 241.603 129.27C239.863 131.09 237.453 132 234.373 132H225.553V130.11H228.013V114.39H225.553V112.5H234.283C237.463 112.5 239.913 113.42 241.633 115.26C243.373 117.08 244.243 119.4 244.243 122.22ZM241.903 122.25C241.903 119.89 241.243 117.99 239.923 116.55C238.623 115.11 236.733 114.39 234.253 114.39H230.203V130.11H234.253C236.733 130.11 238.623 129.41 239.923 128.01C241.243 126.59 241.903 124.67 241.903 122.25ZM258.495 128.16C258.315 129.3 257.745 130.28 256.785 131.1C255.825 131.9 254.525 132.3 252.885 132.3C251.005 132.3 249.485 131.71 248.325 130.53C247.165 129.35 246.585 127.68 246.585 125.52C246.585 123.44 247.135 121.73 248.235 120.39C249.335 119.05 250.825 118.38 252.705 118.38C254.545 118.38 255.945 118.96 256.905 120.12C257.865 121.28 258.355 122.65 258.375 124.23C258.375 124.75 258.315 125.28 258.195 125.82H248.805C248.925 128.94 250.335 130.5 253.035 130.5C254.095 130.5 254.925 130.25 255.525 129.75C256.125 129.25 256.525 128.59 256.725 127.77L258.495 128.16ZM256.155 124.26C256.255 123.26 256.015 122.32 255.435 121.44C254.875 120.56 253.945 120.12 252.645 120.12C251.405 120.12 250.495 120.53 249.915 121.35C249.335 122.17 248.975 123.14 248.835 124.26H256.155ZM274.01 120.36H272.39L267.5 132H265.88L260.78 120.36H259.22V118.65H265.37V120.36H263.06L266.78 129.15H266.96L270.29 120.36H268.16V118.65H274.01V120.36ZM286.825 128.16C286.645 129.3 286.075 130.28 285.115 131.1C284.155 131.9 282.855 132.3 281.215 132.3C279.335 132.3 277.815 131.71 276.655 130.53C275.495 129.35 274.915 127.68 274.915 125.52C274.915 123.44 275.465 121.73 276.565 120.39C277.665 119.05 279.155 118.38 281.035 118.38C282.875 118.38 284.275 118.96 285.235 120.12C286.195 121.28 286.685 122.65 286.705 124.23C286.705 124.75 286.645 125.28 286.525 125.82H277.135C277.255 128.94 278.665 130.5 281.365 130.5C282.425 130.5 283.255 130.25 283.855 129.75C284.455 129.25 284.855 128.59 285.055 127.77L286.825 128.16ZM284.485 124.26C284.585 123.26 284.345 122.32 283.765 121.44C283.205 120.56 282.275 120.12 280.975 120.12C279.735 120.12 278.825 120.53 278.245 121.35C277.665 122.17 277.305 123.14 277.165 124.26H284.485ZM295.247 132H288.467V130.29H290.807V113.07H288.437V111.36H292.907V130.29H295.247V132ZM310.116 125.31C310.116 127.33 309.516 129 308.316 130.32C307.116 131.64 305.486 132.3 303.426 132.3C301.406 132.3 299.816 131.66 298.656 130.38C297.516 129.1 296.946 127.45 296.946 125.43C296.946 123.49 297.506 121.83 298.626 120.45C299.746 119.05 301.386 118.35 303.546 118.35C305.726 118.35 307.366 119.04 308.466 120.42C309.566 121.78 310.116 123.41 310.116 125.31ZM307.896 125.28C307.896 123.76 307.506 122.53 306.726 121.59C305.966 120.63 304.886 120.15 303.486 120.15C302.086 120.15 301.006 120.64 300.246 121.62C299.506 122.6 299.136 123.83 299.136 125.31C299.136 126.77 299.506 128 300.246 129C300.986 130 302.066 130.5 303.486 130.5C304.906 130.5 305.996 130.01 306.756 129.03C307.516 128.03 307.896 126.78 307.896 125.28ZM326.577 124.95C326.577 126.13 326.367 127.29 325.947 128.43C325.547 129.55 324.897 130.48 323.997 131.22C323.117 131.94 321.947 132.3 320.487 132.3C318.467 132.3 316.997 131.55 316.077 130.05V136.68H319.167V138.39H311.607V136.68H313.977V120.36H311.577V118.65H316.077V121.44C316.477 120.64 317.057 119.93 317.817 119.31C318.577 118.69 319.577 118.38 320.817 118.38C322.537 118.38 323.927 118.96 324.987 120.12C326.047 121.28 326.577 122.89 326.577 124.95ZM324.357 125.13C324.357 123.53 323.967 122.31 323.187 121.47C322.407 120.61 321.437 120.18 320.277 120.18C319.077 120.18 318.087 120.66 317.307 121.62C316.527 122.56 316.117 123.54 316.077 124.56V126.54C316.077 127.66 316.467 128.6 317.247 129.36C318.027 130.12 318.967 130.5 320.067 130.5C321.567 130.5 322.657 129.96 323.337 128.88C324.017 127.8 324.357 126.55 324.357 125.13ZM340.761 128.16C340.581 129.3 340.011 130.28 339.051 131.1C338.091 131.9 336.791 132.3 335.151 132.3C333.271 132.3 331.751 131.71 330.591 130.53C329.431 129.35 328.851 127.68 328.851 125.52C328.851 123.44 329.401 121.73 330.501 120.39C331.601 119.05 333.091 118.38 334.971 118.38C336.811 118.38 338.211 118.96 339.171 120.12C340.131 121.28 340.621 122.65 340.641 124.23C340.641 124.75 340.581 125.28 340.461 125.82H331.071C331.191 128.94 332.601 130.5 335.301 130.5C336.361 130.5 337.191 130.25 337.791 129.75C338.391 129.25 338.791 128.59 338.991 127.77L340.761 128.16ZM338.421 124.26C338.521 123.26 338.281 122.32 337.701 121.44C337.141 120.56 336.211 120.12 334.911 120.12C333.671 120.12 332.761 120.53 332.181 121.35C331.601 122.17 331.241 123.14 331.101 124.26H338.421ZM350.323 118.41C351.283 118.41 352.043 118.64 352.603 119.1L353.113 122.46L351.403 122.67L350.893 120.39C350.553 120.27 350.213 120.21 349.873 120.21C349.093 120.21 348.443 120.54 347.923 121.2C347.403 121.84 347.143 122.68 347.143 123.72V130.29H350.233V132H342.703V130.29H345.043V120.36H342.643V118.65H347.023V121.05C347.283 120.31 347.703 119.69 348.283 119.19C348.883 118.67 349.563 118.41 350.323 118.41ZM373.539 121.14H381.939V123.03H378.789C378.409 123.97 377.869 124.98 377.169 126.06C376.489 127.14 375.689 128.14 374.769 129.06C376.169 129.86 377.499 130.26 378.759 130.26C379.599 130.26 380.409 130.05 381.189 129.63L381.699 131.46C380.699 132.02 379.619 132.3 378.459 132.3C377.539 132.3 376.619 132.14 375.699 131.82C374.799 131.5 373.909 131.06 373.029 130.5C372.249 131.04 371.419 131.48 370.539 131.82C369.679 132.14 368.779 132.3 367.839 132.3C366.379 132.3 365.059 131.89 363.879 131.07C362.719 130.23 362.139 129 362.139 127.38C362.139 126.08 362.529 125.05 363.309 124.29C364.089 123.51 364.989 122.84 366.009 122.28C365.249 120.56 364.869 119.01 364.869 117.63C364.869 116.07 365.339 114.78 366.279 113.76C367.239 112.72 368.569 112.2 370.269 112.2C371.669 112.2 372.819 112.57 373.719 113.31C374.619 114.05 375.069 115.03 375.069 116.25C375.069 117.77 374.389 118.98 373.029 119.88C371.669 120.76 370.149 121.61 368.469 122.43C369.709 124.73 371.359 126.65 373.419 128.19C374.139 127.49 374.759 126.7 375.279 125.82C375.799 124.92 376.199 123.99 376.479 123.03H373.539V121.14ZM372.879 116.34C372.879 115.76 372.659 115.22 372.219 114.72C371.799 114.2 371.129 113.94 370.209 113.94C369.189 113.94 368.399 114.28 367.839 114.96C367.299 115.62 367.029 116.45 367.029 117.45C367.029 118.63 367.329 119.91 367.929 121.29C369.209 120.61 370.349 119.89 371.349 119.13C372.369 118.35 372.879 117.42 372.879 116.34ZM366.579 123.45C365.879 123.87 365.319 124.37 364.899 124.95C364.499 125.53 364.299 126.23 364.299 127.05C364.299 128.23 364.699 129.09 365.499 129.63C366.319 130.17 367.279 130.44 368.379 130.44C369.499 130.44 370.599 130.14 371.679 129.54C369.579 127.88 367.879 125.85 366.579 123.45ZM409.359 123.9H407.829V132H406.149L405.879 129.3C405.299 130.16 404.469 130.88 403.389 131.46C402.329 132.02 401.079 132.3 399.639 132.3C396.959 132.3 394.789 131.34 393.129 129.42C391.469 127.5 390.639 125.14 390.639 122.34C390.639 120.46 391.039 118.76 391.839 117.24C392.659 115.7 393.779 114.48 395.199 113.58C396.639 112.66 398.289 112.2 400.149 112.2C401.709 112.2 403.069 112.42 404.229 112.86C405.409 113.28 406.369 113.82 407.109 114.48L407.649 118.14L405.789 118.35L405.189 115.59C404.649 115.23 403.989 114.91 403.209 114.63C402.449 114.33 401.469 114.18 400.269 114.18C398.089 114.18 396.329 114.93 394.989 116.43C393.649 117.93 392.979 119.87 392.979 122.25C392.979 124.67 393.619 126.62 394.899 128.1C396.179 129.58 397.889 130.32 400.029 130.32C401.809 130.32 403.189 129.84 404.169 128.88C405.149 127.9 405.639 126.82 405.639 125.64V123.9H400.989V121.95H409.359V123.9ZM418.702 118.41C419.662 118.41 420.422 118.64 420.982 119.1L421.492 122.46L419.782 122.67L419.272 120.39C418.932 120.27 418.592 120.21 418.252 120.21C417.472 120.21 416.822 120.54 416.302 121.2C415.782 121.84 415.522 122.68 415.522 123.72V130.29H418.612V132H411.082V130.29H413.422V120.36H411.022V118.65H415.402V121.05C415.662 120.31 416.082 119.69 416.662 119.19C417.262 118.67 417.942 118.41 418.702 118.41ZM425.209 119.67C425.909 119.21 426.649 118.88 427.429 118.68C428.209 118.48 429.039 118.38 429.919 118.38C433.099 118.38 434.689 119.87 434.689 122.85V129.21C434.689 130.17 435.069 130.65 435.829 130.65C436.169 130.65 436.469 130.59 436.729 130.47L436.759 131.85C436.219 132.15 435.639 132.3 435.019 132.3C433.439 132.3 432.629 131.4 432.589 129.6V129.54C432.169 130.26 431.569 130.9 430.789 131.46C430.029 132.02 429.109 132.3 428.029 132.3C427.149 132.3 426.249 132.03 425.329 131.49C424.429 130.95 423.979 129.97 423.979 128.55C423.979 126.87 424.639 125.77 425.959 125.25C427.299 124.71 428.719 124.44 430.219 124.44C430.619 124.44 431.019 124.45 431.419 124.47C431.839 124.49 432.229 124.52 432.589 124.56V123.36C432.589 122.4 432.379 121.62 431.959 121.02C431.559 120.42 430.759 120.12 429.559 120.12C428.579 120.12 427.719 120.3 426.979 120.66L426.469 122.97L424.729 122.76L425.209 119.67ZM432.589 126.99V125.97C432.209 125.95 431.809 125.92 431.389 125.88C430.969 125.84 430.539 125.82 430.099 125.82C429.099 125.82 428.189 125.98 427.369 126.3C426.569 126.6 426.169 127.27 426.169 128.31C426.169 129.17 426.439 129.76 426.979 130.08C427.519 130.4 428.079 130.56 428.659 130.56C429.579 130.56 430.439 130.24 431.239 129.6C432.059 128.96 432.509 128.09 432.589 126.99ZM452.641 124.95C452.641 126.13 452.431 127.29 452.011 128.43C451.611 129.55 450.961 130.48 450.061 131.22C449.181 131.94 448.011 132.3 446.551 132.3C444.531 132.3 443.061 131.55 442.141 130.05V136.68H445.231V138.39H437.671V136.68H440.041V120.36H437.641V118.65H442.141V121.44C442.541 120.64 443.121 119.93 443.881 119.31C444.641 118.69 445.641 118.38 446.881 118.38C448.601 118.38 449.991 118.96 451.051 120.12C452.111 121.28 452.641 122.89 452.641 124.95ZM450.421 125.13C450.421 123.53 450.031 122.31 449.251 121.47C448.471 120.61 447.501 120.18 446.341 120.18C445.141 120.18 444.151 120.66 443.371 121.62C442.591 122.56 442.181 123.54 442.141 124.56V126.54C442.141 127.66 442.531 128.6 443.311 129.36C444.091 130.12 445.031 130.5 446.131 130.5C447.631 130.5 448.721 129.96 449.401 128.88C450.081 127.8 450.421 126.55 450.421 125.13ZM470.305 132H463.525V130.29H465.865V124.08C465.865 122.64 465.565 121.63 464.965 121.05C464.385 120.45 463.635 120.15 462.715 120.15C461.555 120.15 460.605 120.55 459.865 121.35C459.145 122.13 458.765 123.01 458.725 123.99V130.29H461.035V132H454.285V130.29H456.595V113.07H454.285V111.36H458.725V121.05C459.705 119.27 461.265 118.38 463.405 118.38C464.705 118.38 465.795 118.78 466.675 119.58C467.555 120.38 467.995 121.67 467.995 123.45V130.29H470.305V132ZM473.713 115.2V112.47H475.993V115.2H473.713ZM478.363 132H471.583V130.29H473.923V120.36H471.523V118.65H476.023V130.29H478.363V132ZM491.811 127.5C491.631 128.66 491.101 129.75 490.221 130.77C489.361 131.79 488.011 132.3 486.171 132.3C484.331 132.3 482.861 131.71 481.761 130.53C480.661 129.33 480.111 127.66 480.111 125.52C480.111 123.68 480.631 122.03 481.671 120.57C482.711 119.11 484.271 118.38 486.351 118.38C487.231 118.38 488.041 118.48 488.781 118.68C489.521 118.88 490.231 119.24 490.911 119.76L491.421 122.97L489.681 123.18L489.171 120.93C488.371 120.43 487.421 120.18 486.321 120.18C484.901 120.18 483.881 120.69 483.261 121.71C482.641 122.73 482.331 123.96 482.331 125.4C482.331 127 482.681 128.25 483.381 129.15C484.081 130.05 485.091 130.5 486.411 130.5C488.411 130.5 489.611 129.37 490.011 127.11L491.811 127.5ZM519.575 122.22C519.575 125.08 518.695 127.43 516.935 129.27C515.195 131.09 512.785 132 509.705 132H500.885V130.11H503.345V114.39H500.885V112.5H509.615C512.795 112.5 515.245 113.42 516.965 115.26C518.705 117.08 519.575 119.4 519.575 122.22ZM517.235 122.25C517.235 119.89 516.575 117.99 515.255 116.55C513.955 115.11 512.065 114.39 509.585 114.39H505.535V130.11H509.585C512.065 130.11 513.955 129.41 515.255 128.01C516.575 126.59 517.235 124.67 517.235 122.25ZM533.827 128.16C533.647 129.3 533.077 130.28 532.117 131.1C531.157 131.9 529.857 132.3 528.217 132.3C526.337 132.3 524.817 131.71 523.657 130.53C522.497 129.35 521.917 127.68 521.917 125.52C521.917 123.44 522.467 121.73 523.567 120.39C524.667 119.05 526.157 118.38 528.037 118.38C529.877 118.38 531.277 118.96 532.237 120.12C533.197 121.28 533.687 122.65 533.707 124.23C533.707 124.75 533.647 125.28 533.527 125.82H524.137C524.257 128.94 525.667 130.5 528.367 130.5C529.427 130.5 530.257 130.25 530.857 129.75C531.457 129.25 531.857 128.59 532.057 127.77L533.827 128.16ZM531.487 124.26C531.587 123.26 531.347 122.32 530.767 121.44C530.207 120.56 529.277 120.12 527.977 120.12C526.737 120.12 525.827 120.53 525.247 121.35C524.667 122.17 524.307 123.14 524.167 124.26H531.487ZM546.839 128.13C546.839 129.43 546.289 130.45 545.189 131.19C544.109 131.93 542.769 132.3 541.169 132.3C540.229 132.3 539.289 132.18 538.349 131.94C537.429 131.68 536.679 131.36 536.099 130.98L536.519 127.95L538.199 128.13L538.109 129.9C539.029 130.34 540.019 130.56 541.079 130.56C542.019 130.56 542.849 130.38 543.569 130.02C544.309 129.64 544.679 129.07 544.679 128.31C544.679 127.57 544.399 127.05 543.839 126.75C543.279 126.45 542.579 126.23 541.739 126.09C540.919 125.95 540.089 125.78 539.249 125.58C538.409 125.38 537.709 125.04 537.149 124.56C536.589 124.06 536.309 123.29 536.309 122.25C536.309 120.83 536.829 119.83 537.869 119.25C538.909 118.67 540.039 118.38 541.259 118.38C542.179 118.38 543.039 118.5 543.839 118.74C544.659 118.98 545.349 119.27 545.909 119.61L546.239 122.73L544.499 122.94L544.169 120.78C543.329 120.34 542.419 120.12 541.439 120.12C540.599 120.12 539.909 120.28 539.369 120.6C538.829 120.92 538.559 121.42 538.559 122.1C538.559 122.8 538.839 123.3 539.399 123.6C539.959 123.88 540.649 124.09 541.469 124.23C542.289 124.35 543.109 124.51 543.929 124.71C544.749 124.91 545.439 125.27 545.999 125.79C546.559 126.29 546.839 127.07 546.839 128.13ZM551.173 115.2V112.47H553.453V115.2H551.173ZM555.823 132H549.043V130.29H551.383V120.36H548.983V118.65H553.483V130.29H555.823V132ZM572.362 120.36H570.202V131.82C570.202 133.92 569.622 135.59 568.462 136.83C567.322 138.07 565.712 138.69 563.632 138.69C562.232 138.69 560.972 138.37 559.852 137.73C558.752 137.09 558.022 136.1 557.662 134.76L559.342 133.92C559.682 134.96 560.272 135.71 561.112 136.17C561.952 136.65 562.822 136.89 563.722 136.89C565.002 136.89 566.042 136.44 566.842 135.54C567.662 134.66 568.072 133.39 568.072 131.73V129.27C567.672 130.05 567.092 130.73 566.332 131.31C565.572 131.89 564.562 132.18 563.302 132.18C561.722 132.18 560.372 131.62 559.252 130.5C558.132 129.38 557.572 127.77 557.572 125.67C557.572 123.89 558.052 122.23 559.012 120.69C559.972 119.15 561.482 118.38 563.542 118.38C565.662 118.38 567.172 119.17 568.072 120.75V118.65H572.362V120.36ZM568.072 126.24V123.93C568.072 122.81 567.682 121.91 566.902 121.23C566.142 120.53 565.212 120.18 564.112 120.18C562.612 120.18 561.522 120.72 560.842 121.8C560.182 122.88 559.852 124.12 559.852 125.52C559.852 127.16 560.222 128.38 560.962 129.18C561.722 129.98 562.652 130.38 563.752 130.38C565.032 130.38 566.062 129.94 566.842 129.06C567.622 128.18 568.032 127.24 568.072 126.24ZM589.787 132H583.037V130.29H585.347V124.08C585.347 122.64 585.057 121.63 584.477 121.05C583.897 120.45 583.157 120.15 582.257 120.15C581.057 120.15 580.087 120.55 579.347 121.35C578.627 122.13 578.247 123.03 578.207 124.05V130.29H580.547V132H573.767V130.29H576.107V120.36H573.707V118.65H578.207V121.02C579.167 119.26 580.727 118.38 582.887 118.38C584.187 118.38 585.277 118.78 586.157 119.58C587.037 120.38 587.477 121.67 587.477 123.45V130.29H589.787V132ZM603.114 128.16C602.934 129.3 602.364 130.28 601.404 131.1C600.444 131.9 599.144 132.3 597.504 132.3C595.624 132.3 594.104 131.71 592.944 130.53C591.784 129.35 591.204 127.68 591.204 125.52C591.204 123.44 591.754 121.73 592.854 120.39C593.954 119.05 595.444 118.38 597.324 118.38C599.164 118.38 600.564 118.96 601.524 120.12C602.484 121.28 602.974 122.65 602.994 124.23C602.994 124.75 602.934 125.28 602.814 125.82H593.424C593.544 128.94 594.954 130.5 597.654 130.5C598.714 130.5 599.544 130.25 600.144 129.75C600.744 129.25 601.144 128.59 601.344 127.77L603.114 128.16ZM600.774 124.26C600.874 123.26 600.634 122.32 600.054 121.44C599.494 120.56 598.564 120.12 597.264 120.12C596.024 120.12 595.114 120.53 594.534 121.35C593.954 122.17 593.594 123.14 593.454 124.26H600.774ZM612.676 118.41C613.636 118.41 614.396 118.64 614.956 119.1L615.466 122.46L613.756 122.67L613.246 120.39C612.906 120.27 612.566 120.21 612.226 120.21C611.446 120.21 610.796 120.54 610.276 121.2C609.756 121.84 609.496 122.68 609.496 123.72V130.29H612.586V132H605.056V130.29H607.396V120.36H604.996V118.65H609.376V121.05C609.636 120.31 610.056 119.69 610.636 119.19C611.236 118.67 611.916 118.41 612.676 118.41Z" fill="#ff7551"/>
</svg>
