<svg width="28" height="28" viewBox="0 0 28 28" fill="none" xmlns="http://www.w3.org/2000/svg">
<path d="M0 3.0625C0 1.37113 1.37113 0 3.0625 0H24.9375C26.6289 0 28 1.37113 28 3.0625V6.5625C28 7.28737 27.4123 7.875 26.6875 7.875C25.9627 7.875 25.375 7.28737 25.375 6.5625V3.0625C25.375 2.82088 25.1792 2.625 24.9375 2.625H3.0625C2.82088 2.625 2.625 2.82088 2.625 3.0625V24.9375C2.625 25.1792 2.82088 25.375 3.0625 25.375H26.6875C27.4123 25.375 28 25.9627 28 26.6875C28 27.4123 27.4123 28 26.6875 28H3.0625C1.37113 28 0 26.6289 0 24.9375V3.0625ZM14.4375 10.0625C15.1624 10.0625 15.75 10.6501 15.75 11.375V18.375C15.75 20.1334 15.267 21.4522 14.2715 22.2817C13.3214 23.0734 12.1692 23.1875 11.375 23.1875C10.6501 23.1875 10.0625 22.5998 10.0625 21.875C10.0625 21.1502 10.6501 20.5625 11.375 20.5625C11.9808 20.5625 12.3598 20.4578 12.591 20.2652C12.7767 20.1103 13.125 19.6791 13.125 18.375V11.375C13.125 10.6501 13.7126 10.0625 14.4375 10.0625ZM19.7325 11.5152C20.4652 10.6429 21.6137 10.0625 23.1875 10.0625C24.6486 10.0625 25.7509 10.5624 26.4939 11.3484C26.9918 11.8752 26.9684 12.7059 26.4416 13.2038C25.9149 13.7018 25.0842 13.6784 24.5863 13.1516C24.3939 12.9482 24.0107 12.6875 23.1875 12.6875C22.3113 12.6875 21.9286 12.9821 21.7425 13.2036C21.5135 13.4761 21.4375 13.818 21.4375 14C21.4375 14.182 21.5135 14.5239 21.7425 14.7964C21.9286 15.0179 22.3113 15.3125 23.1875 15.3125C23.32 15.3125 23.4479 15.3321 23.5683 15.3686C24.7287 15.5338 25.6058 16.0519 26.205 16.7652C26.8947 17.5863 27.125 18.557 27.125 19.25C27.125 19.943 26.8947 20.9137 26.205 21.7348C25.4723 22.6072 24.3238 23.1875 22.75 23.1875C21.2889 23.1875 20.1866 22.6875 19.4436 21.9016C18.9457 21.3748 18.9691 20.5441 19.4959 20.0461C20.0226 19.5482 20.8533 19.5717 21.3512 20.0984C21.5436 20.3018 21.9268 20.5625 22.75 20.5625C23.6262 20.5625 24.0089 20.2678 24.195 20.0464C24.424 19.7738 24.5 19.432 24.5 19.25C24.5 19.068 24.424 18.7262 24.195 18.4536C24.0089 18.2322 23.6262 17.9375 22.75 17.9375C22.6175 17.9375 22.4896 17.9179 22.3692 17.8813C21.2088 17.7161 20.3317 17.1981 19.7325 16.4848C19.0428 15.6636 18.8125 14.693 18.8125 14C18.8125 13.307 19.0428 12.3364 19.7325 11.5152Z" fill="#E0E0E0"/>
</svg>
