<svg width="183" height="77" viewBox="0 0 183 77" fill="none" xmlns="http://www.w3.org/2000/svg">
<path d="M49.0205 24.9191L40.9944 31.0267V27.9603L45.7245 24.2907L41.0195 20.6462V17.5798L49.0205 23.8131V24.9191Z" fill="#ff7551"/>
<path d="M39.3092 14.0861L34.403 31.3786H31.2076L36.1139 14.0861H39.3092Z" fill="#ff7551"/>
<path d="M28.8813 31.0267L20.8551 24.9191V23.8131L28.8561 17.5798V20.6462L24.1511 24.2907L28.8813 27.9603V31.0267Z" fill="#ff7551"/>
<path d="M48.3518 55.6165C47.8151 56.203 46.9512 56.6805 45.7603 57.0492C44.5862 57.4178 43.412 57.6021 42.2379 57.6021C39.9064 57.6021 37.9522 56.8565 36.3755 55.3652C34.7988 53.8571 34.0105 51.8882 34.0105 49.4586C34.0105 48.1851 34.2788 46.8781 34.8156 45.5376C35.3523 44.1971 36.233 43.0661 37.4574 42.1445C38.6819 41.2229 40.3257 40.7621 42.3888 40.7621C43.781 40.7621 44.9804 40.9715 45.9868 41.3905C46.9932 41.7926 47.7564 42.2366 48.2764 42.7226L48.6789 46.5179L45.9364 46.7692L45.5842 44.6077C45.1481 44.3228 44.6197 44.105 43.9991 43.9542C43.3785 43.8034 42.7914 43.7279 42.2379 43.7279C40.8289 43.7279 39.7051 44.1971 38.8664 45.1355C38.0445 46.0738 37.6335 47.4395 37.6335 49.2324C37.6335 51.1258 38.0864 52.4998 38.9922 53.3544C39.898 54.209 41.0553 54.6363 42.4643 54.6363C43.7894 54.6363 44.8294 54.4101 45.5842 53.9576L45.9364 51.5196L48.6789 51.771L48.3518 55.6165Z" fill="#E0E0E0"/>
<path d="M32.6357 52.3993C32.6357 54.0917 32.0654 55.3819 30.9248 56.27C29.7842 57.1581 28.2159 57.6021 26.2198 57.6021C25.1127 57.6021 24.0057 57.4597 22.8986 57.1748C21.8084 56.89 20.9445 56.4627 20.3071 55.893L20.8103 51.8464L23.5025 52.0977L23.4773 54.0833C24.0476 54.3849 24.5341 54.5692 24.9366 54.6363C25.3392 54.6865 25.683 54.7117 25.9682 54.7117C26.8572 54.7117 27.5868 54.6028 28.1571 54.3849C28.7274 54.1503 29.0126 53.6225 29.0126 52.8015C29.0126 51.8966 28.6771 51.2934 28.0062 50.9918C27.3352 50.6734 26.5469 50.4305 25.6411 50.2629C24.8528 50.1288 24.056 49.9361 23.2509 49.6848C22.4625 49.4167 21.8 48.9894 21.2632 48.4029C20.7265 47.7997 20.4581 46.9116 20.4581 45.7387C20.4581 43.9123 21.0787 42.6304 22.32 41.8931C23.5612 41.1391 24.9198 40.7621 26.3959 40.7621C27.4694 40.7621 28.4926 40.9297 29.4655 41.2648C30.4383 41.5831 31.1848 42.0188 31.7048 42.5718L31.8557 46.1157L29.1636 46.3671L28.9371 44.4568C28.5178 44.172 28.09 43.9793 27.6539 43.8788C27.2346 43.7782 26.8236 43.7279 26.4211 43.7279C25.7501 43.7279 25.1882 43.8452 24.7353 44.0798C24.2992 44.3144 24.0812 44.7249 24.0812 45.3114C24.0812 45.9984 24.3663 46.476 24.9366 46.7441C25.5069 47.0122 26.1611 47.23 26.8991 47.3976C27.5701 47.5316 28.35 47.7243 29.239 47.9757C30.1448 48.2102 30.9332 48.6627 31.6041 49.3329C32.2918 49.9864 32.6357 51.0085 32.6357 52.3993Z" fill="#E0E0E0"/>
<path fill-rule="evenodd" clip-rule="evenodd" d="M63.5486 18.3601L37.4354 3.29916C35.619 2.25153 33.381 2.25153 31.5646 3.29916L5.4514 18.3601C3.63499 19.4077 2.51603 21.3438 2.51603 23.4391V53.5609C2.51603 55.6562 3.63499 57.5923 5.4514 58.6399L31.5646 73.7008C33.381 74.7485 35.619 74.7485 37.4354 73.7008L63.5486 58.6399C65.365 57.5923 66.484 55.6562 66.484 53.5609V23.4391C66.484 21.3438 65.365 19.4077 63.5486 18.3601ZM38.6934 1.12246C36.0985 -0.374152 32.9015 -0.374152 30.3066 1.12246L4.19339 16.1834C1.59851 17.68 0 20.4458 0 23.4391V53.5609C0 56.5542 1.59851 59.32 4.19339 60.8166L30.3066 75.8775C32.9015 77.3742 36.0985 77.3742 38.6934 75.8775L64.8066 60.8166C67.4015 59.32 69 56.5542 69 53.5609V23.4391C69 20.4458 67.4015 17.68 64.8066 16.1834L38.6934 1.12246Z" fill="#ff7551"/>
<path d="M96.74 28.268C96.74 29.8973 96.1593 31.1367 94.998 31.986C93.854 32.8353 92.424 33.26 90.708 33.26C88.3507 33.26 86.5393 32.8007 85.274 31.882L85.638 28.554L87.198 28.71L87.094 30.842C87.666 31.1367 88.238 31.336 88.81 31.44C89.382 31.544 89.98 31.596 90.604 31.596C91.7133 31.596 92.6667 31.362 93.464 30.894C94.2787 30.4087 94.686 29.594 94.686 28.45C94.686 27.1673 94.244 26.3353 93.36 25.954C92.476 25.5553 91.514 25.2347 90.474 24.992C89.6767 24.8187 88.888 24.602 88.108 24.342C87.328 24.0647 86.678 23.64 86.158 23.068C85.638 22.4787 85.378 21.6293 85.378 20.52C85.378 18.9253 85.9067 17.7467 86.964 16.984C88.0387 16.2213 89.304 15.84 90.76 15.84C91.696 15.84 92.6407 15.97 93.594 16.23C94.5473 16.49 95.2927 16.828 95.83 17.244L95.986 20.598L94.426 20.754L94.166 18.232C93.6287 17.9547 93.0827 17.7727 92.528 17.686C91.9733 17.582 91.4447 17.53 90.942 17.53C89.8847 17.53 89.0267 17.7727 88.368 18.258C87.7267 18.726 87.406 19.4107 87.406 20.312C87.406 21.3693 87.796 22.08 88.576 22.444C89.356 22.808 90.2227 23.1027 91.176 23.328C91.9387 23.5013 92.7447 23.7267 93.594 24.004C94.4607 24.264 95.1973 24.7233 95.804 25.382C96.428 26.0233 96.74 26.9853 96.74 28.268ZM99.9693 22.314C100.576 21.9153 101.217 21.6293 101.893 21.456C102.569 21.2827 103.289 21.196 104.051 21.196C106.807 21.196 108.185 22.4873 108.185 25.07V30.582C108.185 31.414 108.515 31.83 109.173 31.83C109.468 31.83 109.728 31.778 109.953 31.674L109.979 32.87C109.511 33.13 109.009 33.26 108.471 33.26C107.102 33.26 106.4 32.48 106.365 30.92V30.868C106.001 31.492 105.481 32.0467 104.805 32.532C104.147 33.0173 103.349 33.26 102.413 33.26C101.651 33.26 100.871 33.026 100.073 32.558C99.2933 32.09 98.9033 31.2407 98.9033 30.01C98.9033 28.554 99.4753 27.6007 100.619 27.15C101.781 26.682 103.011 26.448 104.311 26.448C104.658 26.448 105.005 26.4567 105.351 26.474C105.715 26.4913 106.053 26.5173 106.365 26.552V25.512C106.365 24.68 106.183 24.004 105.819 23.484C105.473 22.964 104.779 22.704 103.739 22.704C102.89 22.704 102.145 22.86 101.503 23.172L101.061 25.174L99.5533 24.992L99.9693 22.314ZM106.365 28.658V27.774C106.036 27.7567 105.689 27.7307 105.325 27.696C104.961 27.6613 104.589 27.644 104.207 27.644C103.341 27.644 102.552 27.7827 101.841 28.06C101.148 28.32 100.801 28.9007 100.801 29.802C100.801 30.5473 101.035 31.0587 101.503 31.336C101.971 31.6133 102.457 31.752 102.959 31.752C103.757 31.752 104.502 31.4747 105.195 30.92C105.906 30.3653 106.296 29.6113 106.365 28.658ZM125.096 33H119.246V31.518H121.248V26.136C121.248 24.888 120.996 24.0127 120.494 23.51C119.991 22.99 119.35 22.73 118.57 22.73C117.53 22.73 116.689 23.0767 116.048 23.77C115.424 24.446 115.094 25.226 115.06 26.11V31.518H117.088V33H111.212V31.518H113.24V22.912H111.16V21.43H115.06V23.484C115.892 21.9587 117.244 21.196 119.116 21.196C120.242 21.196 121.187 21.5427 121.95 22.236C122.712 22.9293 123.094 24.0473 123.094 25.59V31.518H125.096V33ZM134.852 29.88C134.54 32.1333 133.318 33.26 131.186 33.26C130.025 33.26 129.132 32.9307 128.508 32.272C127.901 31.6133 127.598 30.7207 127.598 29.594V22.886H125.726V21.43H127.598V17.712H129.418V21.43H133.942V22.886H129.418V29.36C129.418 30.0533 129.565 30.6167 129.86 31.05C130.172 31.466 130.675 31.674 131.368 31.674C131.819 31.674 132.235 31.5353 132.616 31.258C133.015 30.9807 133.301 30.374 133.474 29.438L134.852 29.88ZM137.714 18.44V16.074H139.69V18.44H137.714ZM141.744 33H135.868V31.518H137.896V22.912H135.816V21.43H139.716V31.518H141.744V33ZM144.377 22.314C144.984 21.9153 145.625 21.6293 146.301 21.456C146.977 21.2827 147.697 21.196 148.459 21.196C151.215 21.196 152.593 22.4873 152.593 25.07V30.582C152.593 31.414 152.923 31.83 153.581 31.83C153.876 31.83 154.136 31.778 154.361 31.674L154.387 32.87C153.919 33.13 153.417 33.26 152.879 33.26C151.51 33.26 150.808 32.48 150.773 30.92V30.868C150.409 31.492 149.889 32.0467 149.213 32.532C148.555 33.0173 147.757 33.26 146.821 33.26C146.059 33.26 145.279 33.026 144.481 32.558C143.701 32.09 143.311 31.2407 143.311 30.01C143.311 28.554 143.883 27.6007 145.027 27.15C146.189 26.682 147.419 26.448 148.719 26.448C149.066 26.448 149.413 26.4567 149.759 26.474C150.123 26.4913 150.461 26.5173 150.773 26.552V25.512C150.773 24.68 150.591 24.004 150.227 23.484C149.881 22.964 149.187 22.704 148.147 22.704C147.298 22.704 146.553 22.86 145.911 23.172L145.469 25.174L143.961 24.992L144.377 22.314ZM150.773 28.658V27.774C150.444 27.7567 150.097 27.7307 149.733 27.696C149.369 27.6613 148.997 27.644 148.615 27.644C147.749 27.644 146.96 27.7827 146.249 28.06C145.556 28.32 145.209 28.9007 145.209 29.802C145.209 30.5473 145.443 31.0587 145.911 31.336C146.379 31.6133 146.865 31.752 147.367 31.752C148.165 31.752 148.91 31.4747 149.603 30.92C150.314 30.3653 150.704 29.6113 150.773 28.658ZM168.646 22.912H166.774V32.844C166.774 34.664 166.271 36.1113 165.266 37.186C164.278 38.2607 162.883 38.798 161.08 38.798C159.867 38.798 158.775 38.5207 157.804 37.966C156.851 37.4113 156.218 36.5533 155.906 35.392L157.362 34.664C157.657 35.5653 158.168 36.2153 158.896 36.614C159.624 37.03 160.378 37.238 161.158 37.238C162.267 37.238 163.169 36.848 163.862 36.068C164.573 35.3053 164.928 34.2047 164.928 32.766V30.634C164.581 31.31 164.079 31.8993 163.42 32.402C162.761 32.9047 161.886 33.156 160.794 33.156C159.425 33.156 158.255 32.6707 157.284 31.7C156.313 30.7293 155.828 29.334 155.828 27.514C155.828 25.9713 156.244 24.5327 157.076 23.198C157.908 21.8633 159.217 21.196 161.002 21.196C162.839 21.196 164.148 21.8807 164.928 23.25V21.43H168.646V22.912ZM164.928 28.008V26.006C164.928 25.0353 164.59 24.2553 163.914 23.666C163.255 23.0593 162.449 22.756 161.496 22.756C160.196 22.756 159.251 23.224 158.662 24.16C158.09 25.096 157.804 26.1707 157.804 27.384C157.804 28.8053 158.125 29.8627 158.766 30.556C159.425 31.2493 160.231 31.596 161.184 31.596C162.293 31.596 163.186 31.2147 163.862 30.452C164.538 29.6893 164.893 28.8747 164.928 28.008ZM181.46 27.202C181.46 28.9527 180.94 30.4 179.9 31.544C178.86 32.688 177.447 33.26 175.662 33.26C173.911 33.26 172.533 32.7053 171.528 31.596C170.54 30.4867 170.046 29.0567 170.046 27.306C170.046 25.6247 170.531 24.186 171.502 22.99C172.473 21.7767 173.894 21.17 175.766 21.17C177.655 21.17 179.077 21.768 180.03 22.964C180.983 24.1427 181.46 25.5553 181.46 27.202ZM179.536 27.176C179.536 25.8587 179.198 24.7927 178.522 23.978C177.863 23.146 176.927 22.73 175.714 22.73C174.501 22.73 173.565 23.1547 172.906 24.004C172.265 24.8533 171.944 25.9193 171.944 27.202C171.944 28.4673 172.265 29.5333 172.906 30.4C173.547 31.2667 174.483 31.7 175.714 31.7C176.945 31.7 177.889 31.2753 178.548 30.426C179.207 29.5593 179.536 28.476 179.536 27.176ZM98.95 59.7C97.598 60.74 95.7173 61.26 93.308 61.26C90.8467 61.26 88.8533 60.4453 87.328 58.816C85.8027 57.1693 85.04 55.1153 85.04 52.654C85.04 51.094 85.3693 49.6467 86.028 48.312C86.6867 46.96 87.614 45.8767 88.81 45.062C90.006 44.2473 91.4273 43.84 93.074 43.84C94.478 43.84 95.648 44.022 96.584 44.386C97.5373 44.75 98.3607 45.2267 99.054 45.816L99.522 49.066L97.884 49.222L97.416 46.752C96.8613 46.388 96.2633 46.102 95.622 45.894C94.9807 45.6687 94.1833 45.556 93.23 45.556C91.3753 45.556 89.876 46.2147 88.732 47.532C87.6053 48.8493 87.042 50.5307 87.042 52.576C87.042 54.6733 87.6227 56.3633 88.784 57.646C89.9627 58.9113 91.5573 59.544 93.568 59.544C95.0413 59.544 96.2807 59.2927 97.286 58.79L97.78 56.294L99.392 56.45L98.95 59.7ZM102.915 50.314C103.521 49.9153 104.163 49.6293 104.839 49.456C105.515 49.2827 106.234 49.196 106.997 49.196C109.753 49.196 111.131 50.4873 111.131 53.07V58.582C111.131 59.414 111.46 59.83 112.119 59.83C112.413 59.83 112.673 59.778 112.899 59.674L112.925 60.87C112.457 61.13 111.954 61.26 111.417 61.26C110.047 61.26 109.345 60.48 109.311 58.92V58.868C108.947 59.492 108.427 60.0467 107.751 60.532C107.092 61.0173 106.295 61.26 105.359 61.26C104.596 61.26 103.816 61.026 103.019 60.558C102.239 60.09 101.849 59.2407 101.849 58.01C101.849 56.554 102.421 55.6007 103.565 55.15C104.726 54.682 105.957 54.448 107.257 54.448C107.603 54.448 107.95 54.4567 108.297 54.474C108.661 54.4913 108.999 54.5173 109.311 54.552V53.512C109.311 52.68 109.129 52.004 108.765 51.484C108.418 50.964 107.725 50.704 106.685 50.704C105.835 50.704 105.09 50.86 104.449 51.172L104.007 53.174L102.499 52.992L102.915 50.314ZM109.311 56.658V55.774C108.981 55.7567 108.635 55.7307 108.271 55.696C107.907 55.6613 107.534 55.644 107.153 55.644C106.286 55.644 105.497 55.7827 104.787 56.06C104.093 56.32 103.747 56.9007 103.747 57.802C103.747 58.5473 103.981 59.0587 104.449 59.336C104.917 59.6133 105.402 59.752 105.905 59.752C106.702 59.752 107.447 59.4747 108.141 58.92C108.851 58.3653 109.241 57.6113 109.311 56.658ZM119.773 61H113.897V59.518H115.925V44.594H113.871V43.112H117.745V59.518H119.773V61ZM122.389 50.314C122.996 49.9153 123.637 49.6293 124.313 49.456C124.989 49.2827 125.709 49.196 126.471 49.196C129.227 49.196 130.605 50.4873 130.605 53.07V58.582C130.605 59.414 130.935 59.83 131.593 59.83C131.888 59.83 132.148 59.778 132.373 59.674L132.399 60.87C131.931 61.13 131.429 61.26 130.891 61.26C129.522 61.26 128.82 60.48 128.785 58.92V58.868C128.421 59.492 127.901 60.0467 127.225 60.532C126.567 61.0173 125.769 61.26 124.833 61.26C124.071 61.26 123.291 61.026 122.493 60.558C121.713 60.09 121.323 59.2407 121.323 58.01C121.323 56.554 121.895 55.6007 123.039 55.15C124.201 54.682 125.431 54.448 126.731 54.448C127.078 54.448 127.425 54.4567 127.771 54.474C128.135 54.4913 128.473 54.5173 128.785 54.552V53.512C128.785 52.68 128.603 52.004 128.239 51.484C127.893 50.964 127.199 50.704 126.159 50.704C125.31 50.704 124.565 50.86 123.923 51.172L123.481 53.174L121.973 52.992L122.389 50.314ZM128.785 56.658V55.774C128.456 55.7567 128.109 55.7307 127.745 55.696C127.381 55.6613 127.009 55.644 126.627 55.644C125.761 55.644 124.972 55.7827 124.261 56.06C123.568 56.32 123.221 56.9007 123.221 57.802C123.221 58.5473 123.455 59.0587 123.923 59.336C124.391 59.6133 124.877 59.752 125.379 59.752C126.177 59.752 126.922 59.4747 127.615 58.92C128.326 58.3653 128.716 57.6113 128.785 56.658ZM145.748 54.916C145.748 55.9387 145.574 56.9353 145.228 57.906C144.881 58.8767 144.326 59.6827 143.564 60.324C142.801 60.948 141.813 61.26 140.6 61.26C138.658 61.26 137.306 60.532 136.544 59.076L136.284 61H134.464C134.533 60.4973 134.611 59.9513 134.698 59.362C134.784 58.7727 134.828 58.192 134.828 57.62V44.594H132.826V43.112H136.648V51.822C136.994 51.1113 137.488 50.496 138.13 49.976C138.788 49.456 139.672 49.196 140.782 49.196C142.22 49.196 143.408 49.69 144.344 50.678C145.28 51.666 145.748 53.0787 145.748 54.916ZM143.824 55.098C143.824 53.6593 143.486 52.576 142.81 51.848C142.134 51.12 141.31 50.756 140.34 50.756C139.23 50.756 138.346 51.1633 137.688 51.978C137.029 52.7927 136.682 53.6247 136.648 54.474V56.216C136.648 57.1867 136.986 58.01 137.662 58.686C138.355 59.362 139.204 59.7 140.21 59.7C141.475 59.7 142.394 59.232 142.966 58.296C143.538 57.36 143.824 56.294 143.824 55.098ZM154.124 49.222C154.956 49.222 155.615 49.4213 156.1 49.82L156.542 52.732L155.06 52.914L154.618 50.938C154.324 50.834 154.029 50.782 153.734 50.782C153.058 50.782 152.495 51.068 152.044 51.64C151.594 52.1947 151.368 52.9227 151.368 53.824V59.518H154.046V61H147.52V59.518H149.548V50.912H147.468V49.43H151.264V51.51C151.49 50.8687 151.854 50.3313 152.356 49.898C152.876 49.4473 153.466 49.222 154.124 49.222ZM168.344 44.776L163.872 47.48L163.3 46.674L167.304 43.242L168.344 44.776ZM170.034 55.202C170.034 56.9527 169.514 58.4 168.474 59.544C167.434 60.688 166.022 61.26 164.236 61.26C162.486 61.26 161.108 60.7053 160.102 59.596C159.114 58.4867 158.62 57.0567 158.62 55.306C158.62 53.6247 159.106 52.186 160.076 50.99C161.047 49.7767 162.468 49.17 164.34 49.17C166.23 49.17 167.651 49.768 168.604 50.964C169.558 52.1427 170.034 53.5553 170.034 55.202ZM168.11 55.176C168.11 53.8587 167.772 52.7927 167.096 51.978C166.438 51.146 165.502 50.73 164.288 50.73C163.075 50.73 162.139 51.1547 161.48 52.004C160.839 52.8533 160.518 53.9193 160.518 55.202C160.518 56.4673 160.839 57.5333 161.48 58.4C162.122 59.2667 163.058 59.7 164.288 59.7C165.519 59.7 166.464 59.2753 167.122 58.426C167.781 57.5593 168.11 56.476 168.11 55.176Z" fill="#E0E0E0"/>
</svg>
