<svg width="69" height="77" viewBox="0 0 69 77" fill="none" xmlns="http://www.w3.org/2000/svg">
<path d="M49.0205 24.9191L40.9944 31.0267V27.9603L45.7245 24.2907L41.0195 20.6462V17.5798L49.0205 23.8131V24.9191Z" fill="#ff7551"/>
<path d="M39.3092 14.0861L34.403 31.3786H31.2076L36.1139 14.0861H39.3092Z" fill="#ff7551"/>
<path d="M28.8813 31.0267L20.8551 24.9191V23.8131L28.8561 17.5798V20.6462L24.1511 24.2907L28.8813 27.9603V31.0267Z" fill="#ff7551"/>
<path d="M48.3518 55.6165C47.8151 56.203 46.9512 56.6805 45.7603 57.0492C44.5862 57.4178 43.412 57.6021 42.2379 57.6021C39.9064 57.6021 37.9522 56.8565 36.3755 55.3652C34.7988 53.8571 34.0105 51.8882 34.0105 49.4586C34.0105 48.1851 34.2788 46.8781 34.8156 45.5376C35.3523 44.1971 36.233 43.0661 37.4574 42.1445C38.6819 41.2229 40.3257 40.7621 42.3888 40.7621C43.781 40.7621 44.9804 40.9715 45.9868 41.3905C46.9932 41.7926 47.7564 42.2366 48.2764 42.7226L48.6789 46.5179L45.9364 46.7692L45.5842 44.6077C45.1481 44.3228 44.6197 44.105 43.9991 43.9542C43.3785 43.8034 42.7914 43.7279 42.2379 43.7279C40.8289 43.7279 39.7051 44.1971 38.8664 45.1355C38.0445 46.0738 37.6335 47.4395 37.6335 49.2324C37.6335 51.1258 38.0864 52.4998 38.9922 53.3544C39.898 54.209 41.0553 54.6363 42.4643 54.6363C43.7894 54.6363 44.8294 54.4101 45.5842 53.9576L45.9364 51.5196L48.6789 51.771L48.3518 55.6165Z" fill="#E0E0E0"/>
<path d="M32.6357 52.3993C32.6357 54.0917 32.0654 55.3819 30.9248 56.27C29.7842 57.1581 28.2159 57.6021 26.2198 57.6021C25.1127 57.6021 24.0057 57.4597 22.8986 57.1748C21.8084 56.89 20.9445 56.4627 20.3071 55.893L20.8103 51.8464L23.5025 52.0977L23.4773 54.0833C24.0476 54.3849 24.5341 54.5692 24.9366 54.6363C25.3392 54.6865 25.683 54.7117 25.9682 54.7117C26.8572 54.7117 27.5868 54.6028 28.1571 54.3849C28.7274 54.1503 29.0126 53.6225 29.0126 52.8015C29.0126 51.8966 28.6771 51.2934 28.0062 50.9918C27.3352 50.6734 26.5469 50.4305 25.6411 50.2629C24.8528 50.1288 24.056 49.9361 23.2509 49.6848C22.4625 49.4167 21.8 48.9894 21.2632 48.4029C20.7265 47.7997 20.4581 46.9116 20.4581 45.7387C20.4581 43.9123 21.0787 42.6304 22.32 41.8931C23.5612 41.1391 24.9198 40.7621 26.3959 40.7621C27.4694 40.7621 28.4926 40.9297 29.4655 41.2648C30.4383 41.5831 31.1848 42.0188 31.7048 42.5718L31.8557 46.1157L29.1636 46.3671L28.9371 44.4568C28.5178 44.172 28.09 43.9793 27.6539 43.8788C27.2346 43.7782 26.8236 43.7279 26.4211 43.7279C25.7501 43.7279 25.1882 43.8452 24.7353 44.0798C24.2992 44.3144 24.0812 44.7249 24.0812 45.3114C24.0812 45.9984 24.3663 46.476 24.9366 46.7441C25.5069 47.0122 26.1611 47.23 26.8991 47.3976C27.5701 47.5316 28.35 47.7243 29.239 47.9757C30.1448 48.2102 30.9332 48.6627 31.6041 49.3329C32.2918 49.9864 32.6357 51.0085 32.6357 52.3993Z" fill="#E0E0E0"/>
<path fill-rule="evenodd" clip-rule="evenodd" d="M63.5486 18.3601L37.4354 3.29916C35.619 2.25153 33.381 2.25153 31.5646 3.29916L5.4514 18.3601C3.63499 19.4077 2.51603 21.3438 2.51603 23.4391V53.5609C2.51603 55.6562 3.63499 57.5923 5.4514 58.6399L31.5646 73.7008C33.381 74.7485 35.619 74.7485 37.4354 73.7008L63.5486 58.6399C65.365 57.5923 66.484 55.6562 66.484 53.5609V23.4391C66.484 21.3438 65.365 19.4077 63.5486 18.3601ZM38.6934 1.12246C36.0985 -0.374152 32.9015 -0.374152 30.3066 1.12246L4.19339 16.1834C1.59851 17.68 0 20.4458 0 23.4391V53.5609C0 56.5542 1.59851 59.32 4.19339 60.8166L30.3066 75.8775C32.9015 77.3742 36.0985 77.3742 38.6934 75.8775L64.8066 60.8166C67.4015 59.32 69 56.5542 69 53.5609V23.4391C69 20.4458 67.4015 17.68 64.8066 16.1834L38.6934 1.12246Z" fill="#ff7551"/>
</svg>
