<svg width="14" height="14" viewBox="0 0 14 14" fill="none" xmlns="http://www.w3.org/2000/svg">
<circle cx="7" cy="7" r="7" fill="#FF7551"/>
<path d="M4.36904 10.1061C4.39717 10.1342 4.43533 10.15 4.47511 10.15C4.51489 10.15 4.55304 10.1342 4.58117 10.1061L7 7.68724L9.41883 10.1061C9.4774 10.1646 9.57238 10.1646 9.63096 10.1061L10.1061 9.63096C10.1342 9.60283 10.15 9.56467 10.15 9.52489C10.15 9.48511 10.1342 9.44696 10.1061 9.41883L7.68724 7L10.1061 4.58117C10.1342 4.55304 10.15 4.51489 10.15 4.47511C10.15 4.43533 10.1342 4.39717 10.1061 4.36904L9.63096 3.89393C9.57238 3.83536 9.4774 3.83536 9.41883 3.89393L7 6.31276L4.58117 3.89393C4.55304 3.8658 4.51489 3.85 4.47511 3.85C4.43533 3.85 4.39717 3.8658 4.36904 3.89393L3.89393 4.36904C3.83536 4.42762 3.83536 4.5226 3.89393 4.58117L6.31276 7L3.89393 9.41883C3.83536 9.4774 3.83536 9.57238 3.89393 9.63096L4.36904 10.1061Z" fill="#1E1E1E" stroke="#1E1E1E" stroke-width="0.3" stroke-linejoin="round"/>
</svg>
