<svg width="94" height="94" viewBox="0 0 94 94" fill="none" xmlns="http://www.w3.org/2000/svg">
<path d="M63.5712 57.9366C64.0528 59.9821 64.3076 62.1152 64.3076 64.3077C64.3076 79.6017 51.9094 92 36.6153 92V69.8476M63.5712 57.9366C80.8048 45.3436 92 24.9788 92 2C69.0221 2.00097 48.6591 13.1963 36.0671 30.4296M63.5712 57.9366C55.6855 63.6989 46.5356 67.8339 36.6153 69.8476M36.0671 30.4296C34.0205 29.9474 31.8862 29.6923 29.6923 29.6923C14.3983 29.6923 2 42.0906 2 57.3846H24.1572M36.0671 30.4296C30.3054 38.3151 26.1708 47.4647 24.1572 57.3846M36.6153 69.8476C36.1381 69.9445 35.659 70.0365 35.1782 70.1235C30.9925 66.8045 27.1995 63.0116 23.8806 58.8258C23.9678 58.3437 24.06 57.8632 24.1572 57.3846M13.8242 68.4189C8.74831 72.2054 5.46153 78.2573 5.46153 85.0769C5.46153 86.1701 5.546 87.2436 5.70876 88.2912C6.75635 88.454 7.82985 88.5385 8.92307 88.5385C15.7426 88.5385 21.7946 85.2517 25.5811 80.1758M67.7692 33.1538C67.7692 36.9774 64.6696 40.0769 60.8461 40.0769C57.0226 40.0769 53.923 36.9774 53.923 33.1538C53.923 29.3303 57.0226 26.2308 60.8461 26.2308C64.6696 26.2308 67.7692 29.3303 67.7692 33.1538Z" stroke="#FF5722" stroke-width="3" stroke-linecap="round" stroke-linejoin="round"/>
</svg>
