<svg width="18" height="18" viewBox="0 0 18 18" fill="none" xmlns="http://www.w3.org/2000/svg">
<path fill-rule="evenodd" clip-rule="evenodd" d="M6.7625 5.31971C9.163 2.2358 12.9121 0.250179 17.125 0.25C17.2908 0.249993 17.4497 0.315838 17.5669 0.433049C17.6842 0.55026 17.75 0.709235 17.75 0.875C17.75 5.08803 15.7644 8.8375 12.6804 11.2382C12.7262 11.5274 12.75 11.8236 12.75 12.125C12.75 15.2316 10.2316 17.75 7.125 17.75C6.77982 17.75 6.5 17.4702 6.5 17.125V13.682C6.49229 13.6765 6.48469 13.6707 6.4772 13.6648C5.68386 13.0357 4.96499 12.3169 4.33593 11.5235C4.32981 11.5158 4.32388 11.508 4.31816 11.5H0.875C0.529822 11.5 0.25 11.2202 0.25 10.875C0.25 7.7684 2.7684 5.25 5.875 5.25C6.17665 5.25 6.4731 5.2738 6.7625 5.31971ZM11.5 4.625C10.4645 4.625 9.625 5.46447 9.625 6.5C9.625 7.53553 10.4645 8.375 11.5 8.375C12.5355 8.375 13.375 7.53553 13.375 6.5C13.375 5.46447 12.5355 4.625 11.5 4.625Z" fill="#ff7551"/>
<path d="M3.38364 13.3682C3.66031 13.1618 3.71728 12.7702 3.51089 12.4935C3.30449 12.2168 2.91288 12.1599 2.63621 12.3663C1.56841 13.1628 0.875 14.438 0.875 15.8749C0.875 16.1046 0.892745 16.3305 0.927047 16.5512C0.968824 16.8201 1.17979 17.0311 1.44869 17.0729C1.66947 17.1072 1.89537 17.1249 2.125 17.1249C3.56195 17.1249 4.8371 16.4315 5.63367 15.3637C5.84006 15.087 5.78309 14.6954 5.50642 14.489C5.22974 14.2826 4.83814 14.3396 4.63174 14.6163C4.06094 15.3814 3.15068 15.8749 2.125 15.8749C2.125 14.8493 2.61848 13.939 3.38364 13.3682Z" fill="#ff7551"/>
</svg>
